# Blender v2.82 (sub 7) OBJ File: ''
# www.blender.org
o Cube
v 0.219613 0.219613 -0.219613
v 0.219613 -0.219613 -0.219613
v 0.219613 0.219613 0.219613
v 0.219613 -0.219613 0.219613
v -0.219613 0.219613 -0.219613
v -0.219613 -0.219613 -0.219613
v -0.219613 0.219613 0.219613
v -0.219613 -0.219613 0.219613
v 0.219613 0.219613 -0.219613
v 0.219613 -0.219613 -0.219613
v 0.219613 0.219613 0.219613
v 0.219613 -0.219613 0.219613
v -0.219613 0.219613 -0.219613
v -0.219613 -0.219613 -0.219613
v -0.219613 0.219613 0.219613
v -0.219613 -0.219613 0.219613
v -0.003765 -0.003765 -0.445280
v 0.219613 0.219613 -0.221901
v -0.003765 0.003765 -0.445280
v 0.219613 -0.219613 -0.221901
v -0.219613 0.219613 -0.221901
v 0.003765 -0.003765 -0.445280
v -0.219613 -0.219613 -0.221901
v 0.003765 0.003765 -0.445280
vt 0.625000 0.750000
vt 0.875000 0.500000
vt 0.625000 0.500000
vt 0.375000 1.000000
vt 0.375000 0.750000
vt 0.375000 0.250000
vt 0.625000 0.000000
vt 0.375000 0.000000
vt 0.125000 0.750000
vt 0.375000 0.500000
vt 0.125000 0.500000
vt 0.625000 0.250000
vt 0.875000 0.500000
vt 0.625000 0.750000
vt 0.625000 0.500000
vt 0.375000 1.000000
vt 0.375000 0.750000
vt 0.625000 0.000000
vt 0.375000 0.250000
vt 0.375000 0.000000
vt 0.375000 0.500000
vt 0.125000 0.750000
vt 0.125000 0.500000
vt 0.875000 0.500000
vt 0.625000 0.250000
vt 0.375000 0.250000
vt 0.375000 0.500000
vt 0.497857 0.377143
vt 0.502143 0.372857
vt 0.502143 0.377143
vt 0.169707 0.590434
vt 0.257085 0.605814
vt 0.625000 0.500000
vt 0.497857 0.372857
vt 0.625000 0.250000
vt 0.752143 0.500000
vt 0.763852 0.641495
vt 0.875000 0.750000
vt 0.625000 1.000000
vt 0.875000 0.750000
vt 0.625000 1.000000
vt 0.125000 0.500000
vn 0.0000 -1.0000 0.0000
vn 0.0000 0.0000 -1.0000
vn 1.0000 0.0000 0.0000
vn 0.0000 1.0000 0.0000
vn -1.0000 0.0000 0.0000
vn 0.0000 0.0000 1.0000
vn 0.0000 0.7071 0.7071
vn -0.7071 0.0000 0.7071
vn -0.7071 0.0000 -0.7071
vn 0.0000 -0.7071 0.7071
vn 0.0000 -0.7071 -0.7071
vn 0.7071 0.0000 -0.7071
vn 0.7071 0.0000 0.7071
vn 0.0000 0.7071 -0.7071
s off
f 3/1/1 5/2/1 1/3/1
f 8/4/2 3/1/2 4/5/2
f 6/6/3 7/7/3 8/8/3
f 8/9/4 2/10/4 6/11/4
f 4/5/5 1/3/5 2/10/5
f 2/10/6 5/12/6 6/6/6
f 13/13/4 11/14/4 9/15/4
f 11/14/6 16/16/6 12/17/6
f 15/18/5 14/19/5 16/20/5
f 10/21/1 16/22/1 14/23/1
f 9/15/3 12/17/3 10/21/3
f 9/15/4 21/24/4 13/13/4
f 13/25/5 23/26/5 14/19/5
f 14/23/1 20/27/1 10/21/1
f 22/28/2 19/29/2 24/30/2
f 20/27/7 24/31/7 19/32/7
f 18/33/8 19/29/8 17/34/8
f 22/28/9 23/26/9 21/35/9
f 21/24/10 17/36/10 22/37/10
f 10/21/3 18/33/3 9/15/3
f 3/1/1 7/38/1 5/2/1
f 8/4/2 7/39/2 3/1/2
f 6/6/3 5/12/3 7/7/3
f 8/9/4 4/5/4 2/10/4
f 4/5/5 3/1/5 1/3/5
f 2/10/6 1/3/6 5/12/6
f 13/13/4 15/40/4 11/14/4
f 11/14/6 15/41/6 16/16/6
f 15/18/5 13/25/5 14/19/5
f 10/21/1 12/17/1 16/22/1
f 9/15/3 11/14/3 12/17/3
f 9/15/4 18/33/4 21/24/4
f 13/25/5 21/35/5 23/26/5
f 14/23/1 23/42/1 20/27/1
f 22/28/2 17/34/2 19/29/2
f 20/27/11 23/42/11 24/31/11
f 18/33/12 20/27/12 19/29/12
f 22/28/13 24/30/13 23/26/13
f 21/24/14 18/33/14 17/36/14
f 10/21/3 20/27/3 18/33/3
