# Blender v2.78 (sub 0) OBJ File: ''
# www.blender.org
v 0.500000 -0.700000 0.020000
v -0.500000 -0.700000 -0.020000
v 0.500000 -0.700000 -0.020000
v -0.500000 0.700000 -0.020000
v 0.500000 0.700000 0.020000
v 0.500000 0.700000 -0.020000
v -0.500000 -0.700000 0.020000
v -0.500000 0.700000 0.020000
vt 0.9811 1.0000
vt 1.0000 0.5000
vt 1.0000 1.0000
vt 1.0000 0.5000
vt 0.9811 0.0000
vt 1.0000 0.0000
vt 0.9623 0.7000
vt 0.9434 0.0000
vt 0.9623 0.0000
vt 0.9434 0.7000
vt 0.4717 0.0000
vt 0.9623 0.0000
vt 0.9811 0.7000
vt 0.9623 0.7000
vt -0.0000 0.0000
vt 0.4717 0.7000
vt 0.0000 0.7000
vt 0.9811 0.5000
vt 0.9811 0.5000
vt 0.4717 0.7000
vt 0.9811 0.0000
vt 0.4717 -0.0000
vn 0.0000 -1.0000 0.0000
vn 0.0000 1.0000 0.0000
vn 1.0000 0.0000 0.0000
vn 0.0000 -0.0000 1.0000
vn -1.0000 0.0000 0.0000
vn 0.0000 0.0000 -1.0000
s 1
f 1/1/1 2/2/1 3/3/1
f 4/4/2 5/5/2 6/6/2
f 6/7/3 1/8/3 3/9/3
f 5/10/4 7/11/4 1/8/4
f 8/12/5 2/13/5 7/14/5
f 3/15/6 4/16/6 6/17/6
f 1/1/1 7/18/1 2/2/1
f 4/4/2 8/19/2 5/5/2
f 6/7/3 5/10/3 1/8/3
f 5/10/4 8/20/4 7/11/4
f 8/12/5 4/21/5 2/13/5
f 3/15/6 2/22/6 4/16/6
