# Blender v2.82 (sub 7) OBJ File: 'doorwhole.blend'
# www.blender.org
o Cube
v 0.269342 5.386032 -6.744167
v 0.269342 -5.386032 -6.744167
v -0.269342 5.386032 -6.744167
v -0.269342 -5.386032 -6.744167
v 0.269342 -5.386032 -3.194492
v -0.269342 -5.386032 -3.264424
v 0.269342 5.386032 -2.652545
v -0.269342 5.386032 -2.649130
v -0.269342 0.020512 -0.062060
v 0.269342 -0.133912 -0.113947
vt 1.553295 1.431865
vt 3.659883 1.431865
vt 3.659883 2.071422
vt 1.553295 2.070889
vt -2.659883 1.431865
vt -0.553295 1.431865
vt -0.553295 1.986249
vt -2.659883 1.975327
vt 0.473812 2.467364
vt -0.553295 -0.674724
vt 1.553295 -0.674724
vt 0.000000 0.000000
vt 0.000000 0.000000
vt 0.000000 0.000000
vt 0.000000 0.000000
vt -0.553295 -1.218185
vt 0.504011 -1.718326
vt 1.553295 -1.314281
vt 0.000000 0.000000
vt 0.000000 0.000000
vn 0.0000 1.0000 0.0000
vn 0.0000 -1.0000 0.0000
vn 1.0000 0.0000 0.0000
vn 0.0000 0.0000 -1.0000
vn -0.0631 -0.5086 0.8587
vn 0.2030 0.4091 0.8896
vn -1.0000 0.0000 0.0000
vn -0.1113 -0.5028 0.8572
vn 0.0057 0.4343 0.9007
s off
f 1/1/1 3/2/1 8/3/1 7/4/1
f 4/5/2 2/6/2 5/7/2 6/8/2
f 2/6/3 1/1/3 7/4/3 10/9/3 5/7/3
f 4/10/4 3/11/4 1/1/4 2/6/4
f 10/12/5 9/13/5 6/14/5
f 7/15/6 9/13/6 10/12/6
f 6/16/7 9/17/7 8/18/7 3/11/7 4/10/7
f 10/12/8 6/14/8 5/19/8
f 7/15/9 8/20/9 9/13/9
