# Blender v2.82 (sub 7) OBJ File: ''
# www.blender.org
o Cube.002
v 0.269342 5.386033 -2.652544
v 0.269342 -0.133912 -0.113947
v 0.269342 -0.133912 -0.113947
v 0.269342 5.386033 -2.652544
v 0.269342 -5.386033 6.744166
v 0.269342 5.386031 6.744168
v -0.269342 5.386031 6.744168
v -0.269342 -5.386033 6.744166
v -0.269342 5.386032 3.116006
v -0.269342 0.020512 -0.062060
v -0.269342 -5.386033 2.313677
v -0.269342 -5.386032 -3.264425
v -0.269342 0.020512 -0.062060
v -0.269342 -5.386032 -3.264425
v 0.269342 -5.386032 -3.194493
v 0.269342 -5.386032 -3.194493
v 0.269342 -5.386033 2.301482
v 0.269342 5.386032 3.123686
v -0.269342 5.386033 -2.649129
v -0.269342 5.386033 -2.649129
vt 2.514908 1.340230
vt 1.095536 1.861540
vt 2.514908 1.340230
vt 2.514908 3.269878
vt -0.254969 6.039755
vt -0.254969 3.269878
vt 2.514908 -5.039755
vt 2.514908 -4.294699
vt 1.135244 -3.642072
vt -0.254969 -2.984455
vt 1.135244 -3.642072
vt -0.254969 -2.984455
vt -0.254969 1.228939
vt -3.024847 1.214578
vt -0.254969 1.228939
vt 1.095536 1.861540
vt -3.024847 2.360061
vt -3.024847 1.214578
vt 2.514908 2.526399
vt 5.284786 3.269878
vt -0.254969 2.357557
vt 5.284786 1.340930
vt 5.284786 1.340930
vt 2.514908 -3.110808
vt 5.284786 2.524821
vt -0.254969 -4.129939
vt 2.514908 -3.110808
vt -3.024847 3.269878
vt -4.409786 -5.039755
vt -4.409786 -5.039755
vt -4.409786 -5.039755
vt -4.409786 -5.039755
vt -4.409786 -5.039755
vt -4.409786 -5.039755
vt 2.514908 6.039755
vt -0.254969 -5.039755
vn 0.0000 0.0000 1.0000
vn -1.0000 -0.0000 0.0000
vn 0.0000 -1.0000 -0.0000
vn -0.0000 1.0000 0.0000
vn 1.0000 0.0000 0.0000
vn 0.1113 0.5028 -0.8572
vn 0.0631 0.5086 -0.8587
vn -0.2030 -0.4091 -0.8896
vn -0.0057 -0.4343 -0.9007
s 1
f 1/1/1 3/2/1 4/3/1
f 6/4/1 8/5/1 5/6/1
f 7/7/2 9/8/2 10/9/2
f 12/10/1 13/11/1 14/12/1
f 15/13/1 14/14/1 16/15/1
f 2/16/1 16/15/1 3/2/1
f 15/13/3 11/17/3 12/18/3
f 18/19/4 7/20/4 6/4/4
f 15/13/5 2/16/5 17/21/5
f 19/22/1 4/3/1 20/23/1
f 10/9/1 20/24/1 13/11/1
f 1/1/4 9/25/4 18/19/4
f 2/16/5 1/1/5 18/19/5
f 2/16/5 6/4/5 5/6/5
f 11/26/2 10/9/2 12/10/2
f 19/27/2 10/9/2 9/8/2
f 11/17/3 5/6/3 8/28/3
f 3/29/6 16/30/6 14/31/6
f 3/29/7 14/31/7 13/32/7
f 4/33/8 3/29/8 13/32/8
f 4/33/9 13/32/9 20/34/9
f 1/1/1 2/16/1 3/2/1
f 6/4/1 7/35/1 8/5/1
f 11/26/2 8/36/2 10/9/2
f 8/36/2 7/7/2 10/9/2
f 12/10/1 10/9/1 13/11/1
f 15/13/1 12/18/1 14/14/1
f 2/16/1 15/13/1 16/15/1
f 15/13/3 17/21/3 11/17/3
f 18/19/4 9/25/4 7/20/4
f 19/22/1 1/1/1 4/3/1
f 10/9/1 19/27/1 20/24/1
f 1/1/4 19/22/4 9/25/4
f 5/6/5 17/21/5 2/16/5
f 2/16/5 18/19/5 6/4/5
f 11/17/3 17/21/3 5/6/3
