# Blender v2.78 (sub 0) OBJ File: ''
# www.blender.org
v -0.204372 0.012619 0.096692
v -0.079030 -0.027861 0.107274
v 0.071643 0.055540 0.137687
v -0.048116 0.097986 0.180862
v 0.009381 0.355151 0.058230
v 0.248901 0.261703 0.062593
v 0.009711 0.153539 0.184792
v -0.053695 0.180850 0.173441
v 0.189963 0.325137 0.072070
v 0.059892 0.166090 0.177946
v 0.024482 0.228523 0.170733
v -0.089921 0.267402 0.122620
v 0.024215 0.316723 0.115839
v -0.211118 0.151120 0.102114
v -0.253510 0.117248 0.062871
v 0.214672 0.159273 0.086421
v 0.222744 0.360386 0.063751
v 0.259710 0.252070 0.039706
v 0.230514 1.137669 0.052922
v 0.257302 1.200129 0.044933
v 0.297616 1.374469 0.051378
v 0.522579 0.382939 0.007100
v 0.546087 0.379185 0.014026
v 0.277284 1.230289 0.030997
v 0.288086 1.519605 0.045588
v 0.348250 1.209402 0.023098
v 0.455024 1.181144 0.040108
v 0.468853 1.141199 0.024137
v 0.582574 1.008184 0.022482
v 0.623545 0.960491 0.035846
v 0.635456 0.831401 0.020337
v 0.691684 0.835838 0.031435
v 0.634241 0.704221 0.022618
v 0.673870 0.694751 0.028761
v 0.591623 0.536936 0.011698
v -0.062054 -0.065352 -0.026534
v -0.075205 -0.058609 0.050806
v 0.070745 -0.009351 0.075846
v 0.167485 0.049612 0.048615
v 0.212363 1.700773 0.045931
v 0.086937 0.370072 0.010455
v -0.122771 0.300804 0.047936
v 0.033825 0.363748 -0.055418
v 0.237042 0.141580 0.014230
v -0.205895 0.230468 0.038195
v -0.207463 -0.032859 0.038320
v 0.211954 0.406086 0.041149
v 0.254086 1.696174 0.057886
v 0.285010 1.538347 -0.041209
v 0.340150 1.414701 -0.028865
v 0.343930 1.405893 0.035580
v 0.579699 1.148417 -0.027153
v 0.580806 1.140072 0.037517
v 0.667497 0.967126 0.037781
v 0.674675 0.960879 -0.031170
v 0.601329 0.469699 0.016082
v -0.184740 0.019029 -0.107278
v -0.244067 0.031839 -0.064050
v -0.070448 -0.030429 -0.105117
v -0.021126 0.020549 -0.141994
v -0.101265 0.267205 -0.115149
v -0.017898 0.320948 -0.104453
v 0.107397 0.309382 -0.109150
v 0.053006 0.195109 -0.177845
v -0.224554 0.150937 -0.091481
v -0.055110 0.100937 -0.178987
v 0.084929 0.026961 -0.111607
v 0.049060 0.101816 -0.167415
v 0.220768 0.155622 -0.081383
v 0.003529 0.222336 -0.175112
v -0.085714 0.153635 -0.169158
v 0.210633 0.371407 -0.049156
v 0.225212 0.314868 -0.065884
v 0.259473 0.246489 -0.040424
v 0.214052 1.071729 -0.044684
v 0.248697 0.223456 -0.063505
v 0.259380 1.200070 -0.037039
v 0.240188 1.194789 -0.053231
v 0.213129 1.700484 -0.057667
v 0.256845 1.695992 -0.049336
v 0.522806 0.377305 -0.007763
v 0.289819 1.253094 -0.036932
v 0.277825 1.224808 -0.019590
v 0.355561 1.205697 -0.018934
v 0.326770 1.395862 -0.046756
v 0.301216 1.334679 -0.050072
v 0.484033 1.130681 -0.028807
v 0.559811 1.131078 -0.045754
v 0.588510 0.998622 -0.028403
v 0.634587 0.841882 -0.021823
v 0.668891 0.872652 -0.037429
v 0.634889 0.710571 -0.020398
v 0.647114 0.586717 -0.023008
v 0.594078 0.538006 -0.015904
v 0.557462 0.392627 -0.016037
v -0.200736 -0.031285 -0.051825
v 0.079274 -0.022777 -0.022626
v 0.156525 0.040146 -0.044782
v 0.187392 0.344079 -0.043530
v -0.145781 0.282790 -0.052156
v -0.264245 0.040919 0.011179
v -0.270675 0.100961 -0.008132
v -0.240562 0.170466 -0.049196
v 0.191909 0.355181 0.008630
v 0.689713 0.782217 -0.026097
vt 0.3621 0.0764
vt 0.8699 0.0316
vt 0.7405 0.2513
vt 0.1809 1.0000
vt 0.2555 0.8458
vt 0.4497 1.0000
vt 0.6567 0.5127
vt 0.9482 0.9352
vt 0.5368 0.7053
vt 0.8999 0.6169
vt 0.5490 0.5088
vt 0.3923 0.6282
vt 0.4077 0.4074
vt 0.0697 0.5490
vt 0.2424 0.8327
vt 0.0740 0.1940
vt 1.0000 0.2334
vt 0.5637 0.8942
vt 0.5002 0.8167
vt 0.5447 0.8876
vt 0.5175 0.8658
vt 0.4899 1.0059
vt 0.5408 0.9466
vt 0.8102 0.9832
vt 0.4854 0.8215
vt 0.5532 0.8298
vt 0.9468 0.8969
vt 0.5000 0.9586
vt 0.5000 0.9687
vt 0.5000 0.9661
vt 0.5000 0.8556
vt 0.5017 0.8484
vt 0.5328 0.9868
vt 0.5033 0.8936
vt 0.6165 0.9238
vt 0.5000 0.8772
vt 0.5000 0.9071
vt 0.5000 0.9645
vt 0.5000 0.9048
vt 0.5000 0.8937
vt 0.5000 0.9746
vt 0.5000 0.9028
vt 0.5000 0.9259
vt 0.5000 0.9559
vt 0.5000 0.8716
vt 0.5000 0.9497
vt 0.5000 0.9577
vt 0.4101 0.7940
vt 0.4569 0.6785
vt 0.8844 0.9271
vt 0.1807 0.7695
vt 0.0323 0.9461
vt 0.0000 0.7516
vt 0.8504 0.9379
vt 0.2937 0.6433
vt 0.0773 0.9472
vt 0.1680 0.6733
vt 1.0000 1.0000
vt 0.8721 0.7266
vt 1.0000 0.8070
vt 0.4701 0.8319
vt 0.4074 0.7926
vt 0.3835 0.6630
vt 0.4850 0.7339
vt 0.4124 0.9468
vt 0.3402 1.0000
vt 0.5705 0.8551
vt 0.2255 0.7318
vt 0.6008 0.6396
vt 0.8453 0.9773
vt 0.9529 0.7189
vt 1.0000 1.0000
vt 0.7741 0.6508
vt 0.4344 0.9016
vt 0.5020 0.8602
vt 0.5000 0.9217
vt 0.5000 0.9574
vt 0.1326 0.2204
vt 0.0000 0.0323
vt 0.0000 0.1620
vt 0.5007 0.6960
vt 0.1863 0.8446
vt 0.4447 0.9566
vt 0.9217 0.4300
vt 0.6339 0.5793
vt 0.5032 0.9451
vt 0.4151 0.4066
vt 0.4117 0.0470
vt 0.5121 0.2191
vt 0.6382 0.3815
vt 0.8207 0.1543
vt 0.2987 0.5820
vt 0.7489 0.8820
vt 0.0273 0.5425
vt 0.9352 0.9127
vt 0.9083 0.9222
vt 0.7093 0.9882
vt 0.5201 0.9861
vt 0.5026 0.9230
vt 0.5638 0.9175
vt 0.5000 0.8375
vt 0.5000 0.9550
vt 0.5000 0.9657
vt 0.5000 0.8980
vt 0.5000 0.9073
vt 0.5000 0.9845
vt 0.5000 0.9180
vt 0.5000 0.9152
vt 0.5000 0.8857
vt 0.5000 0.9501
vt 0.5000 0.9344
vt 0.9093 0.7179
vt 0.3585 0.9843
vt 0.9041 1.0000
vt 0.1480 0.7633
vt 0.0614 1.0000
vt 0.3560 0.9476
vt 0.0122 1.0000
vt 0.1374 0.8240
vt 0.9488 0.8063
vt 1.0000 1.0000
vt 0.5368 0.9919
vt 0.0311 0.5892
vt 0.0931 0.8042
vt 0.4647 0.9838
vt 0.0866 0.9443
vt 0.4138 0.7766
vt 0.9573 0.7891
vt 0.5000 0.8419
vt 0.9585 0.4243
vt 0.0000 0.3806
vt 0.5000 0.8694
vt 0.3291 1.0000
vt 0.0519 0.7199
vt 0.3909 1.0000
vt 0.5000 0.8529
vt 0.7209 1.0000
vt 0.0344 0.8519
vt 0.7903 0.8831
vn -0.0418 -0.7186 0.6942
vn 0.3972 -0.8065 0.4378
vn 0.3690 -0.4817 0.7949
vn -0.5179 0.8165 0.2552
vn -0.4014 0.5681 0.7184
vn -0.1938 0.9247 0.3277
vn 0.3167 -0.0117 0.9484
vn 0.1223 0.5308 0.8386
vn 0.0674 0.3752 0.9245
vn 0.7082 0.0144 0.7058
vn 0.0550 -0.0267 0.9981
vn -0.2821 0.2211 0.9335
vn -0.1296 -0.2296 0.9646
vn -0.6323 0.2305 0.7397
vn -0.5592 -0.4226 0.7132
vn 0.6873 -0.6534 0.3175
vn -0.0312 0.6937 0.7196
vn 0.5255 -0.8085 -0.2649
vn 0.8314 -0.2099 0.5145
vn 0.8611 -0.2471 -0.4443
vn -0.3356 0.1911 0.9224
vn -0.1008 0.0003 0.9949
vn 0.9647 -0.1133 0.2378
vn -0.9592 0.0653 0.2749
vn -0.6097 0.6310 0.4796
vn 0.2559 -0.7207 0.6443
vn -0.8280 -0.2432 0.5053
vn -0.6462 -0.5945 -0.4785
vn -0.3178 -0.9424 0.1044
vn 0.5220 -0.5675 0.6368
vn 0.1228 0.0155 0.9923
vn 0.8569 0.2091 0.4711
vn 0.4676 0.5941 0.6545
vn 0.6526 0.4200 0.6306
vn 0.6247 0.4103 0.6644
vn -0.2607 -0.3314 0.9067
vn 0.6632 0.2069 0.7193
vn -0.8279 -0.5317 0.1787
vn -0.2450 -0.1124 0.9630
vn 0.7389 0.0004 0.6739
vn -0.9588 -0.0728 -0.2748
vn -0.7277 0.0685 0.6824
vn 0.6514 -0.1710 0.7393
vn -0.8802 0.3321 0.3391
vn -0.6921 0.2198 -0.6875
vn 0.0188 -0.9599 0.2798
vn 0.0710 -0.9860 -0.1509
vn 0.4307 -0.8926 -0.1331
vn -0.4768 0.5928 -0.6491
vn 0.0903 0.9878 0.1273
vn -0.5136 0.8492 0.1225
vn -0.7590 0.6042 0.2427
vn -0.1126 0.9396 -0.3232
vn 0.9042 -0.4207 0.0736
vn 0.9764 -0.0970 -0.1932
vn 0.7099 -0.2597 0.6546
vn -0.8780 0.1326 0.4600
vn -0.9890 0.1155 -0.0925
vn -0.5432 -0.8013 0.2508
vn -0.9336 -0.3376 0.1204
vn -0.8427 0.2001 -0.4998
vn 0.7897 0.1984 -0.5806
vn 0.7341 -0.3697 0.5696
vn 0.4468 -0.5075 -0.7368
vn -0.4417 -0.3789 -0.8132
vn -0.4961 -0.7962 -0.3464
vn -0.8077 -0.3157 -0.4980
vn -0.0688 0.3483 -0.9349
vn -0.4406 0.5591 -0.7023
vn -0.2163 0.7446 -0.6315
vn 0.7421 -0.2873 -0.6056
vn 0.2574 0.1128 -0.9597
vn 0.8093 -0.1099 -0.5771
vn -0.1464 -0.1991 -0.9690
vn -0.0135 -0.7635 -0.6457
vn 0.0840 -0.5535 -0.8286
vn 0.3024 -0.2797 -0.9112
vn 0.4321 -0.6305 -0.6448
vn -0.3635 0.1383 -0.9213
vn 0.1916 0.6106 -0.7684
vn -0.6983 0.2188 -0.6816
vn 0.1383 0.2037 -0.9692
vn -0.8235 0.0084 -0.5673
vn 0.1931 -0.0489 -0.9800
vn 0.0828 -0.0179 -0.9964
vn 0.1732 -0.2861 -0.9424
vn 0.6347 0.5460 -0.5469
vn -0.4327 -0.8796 -0.1976
vn 0.2659 0.1840 -0.9463
vn 0.1720 0.0930 -0.9807
vn -0.5111 -0.5837 -0.6309
vn -0.7319 -0.3628 -0.5768
vn 0.1389 -0.0348 -0.9897
vn -0.7988 -0.1291 -0.5876
vn 0.8124 -0.0942 -0.5754
vn 0.7909 0.2375 -0.5640
vn -0.9782 0.1669 0.1239
vn 0.6894 -0.2717 -0.6715
vn 0.6872 -0.6751 -0.2683
vn -0.2134 0.7868 -0.5791
vn -0.5901 0.7525 -0.2925
vn -0.8599 0.4324 -0.2713
vn 0.7862 0.4676 -0.4041
vn -0.5954 -0.6843 0.4210
vn 0.7468 0.5203 -0.4141
s 1
f 2/1/1 38/2/2 3/3/3
f 42/4/4 12/5/5 5/6/6
f 10/7/7 9/8/8 11/9/9
f 10/7/7 6/10/10 9/8/8
f 7/11/11 8/12/12 4/13/13
f 14/14/14 8/12/12 12/15/5
f 1/16/15 2/1/1 4/13/13
f 39/17/16 3/3/3 38/2/2
f 4/13/13 3/3/3 10/7/7
f 12/5/5 11/9/9 13/18/17
f 11/9/9 12/5/5 8/12/12
f 4/13/13 8/12/12 14/14/14
f 83/19/18 20/20/19 77/21/20
f 11/9/9 9/8/8 13/18/17
f 9/8/8 6/22/10 17/23/21
f 17/23/21 6/22/10 19/24/22
f 20/20/19 18/25/23 77/21/20
f 17/23/21 19/24/22 47/26/24
f 18/25/23 20/20/19 6/22/10
f 47/26/24 19/24/22 40/27/25
f 23/28/26 22/29/27 81/30/28
f 26/31/29 24/32/30 83/19/18
f 21/33/31 25/34/32 48/35/33
f 24/32/30 21/33/31 20/20/19
f 51/36/34 21/33/31 53/37/35
f 27/38/36 54/39/37 21/33/31
f 29/40/38 30/41/39 27/38/36
f 30/41/39 32/42/40 54/39/37
f 31/43/41 33/44/42 30/41/39
f 23/28/26 34/45/43 22/29/27
f 22/29/27 35/46/44 94/47/45
f 37/48/46 36/49/47 38/50/2
f 39/51/16 38/52/2 97/53/48
f 40/27/25 48/35/33 79/54/49
f 41/55/50 9/56/8 104/57/51
f 12/58/5 42/59/4 45/60/52
f 42/59/4 5/61/6 43/62/53
f 18/25/23 44/63/54 74/64/55
f 6/22/10 16/65/56 18/25/23
f 43/62/53 5/61/6 41/55/50
f 9/56/8 5/61/6 13/66/17
f 15/67/57 45/68/52 102/69/58
f 1/70/15 46/71/59 2/72/1
f 46/71/59 1/70/15 101/73/60
f 104/57/51 47/26/24 72/74/61
f 47/26/24 40/27/25 79/54/49
f 48/35/33 25/34/32 49/75/62
f 56/76/63 23/28/26 95/77/64
f 57/78/65 96/79/66 58/80/67
f 70/81/68 61/82/69 62/83/70
f 69/84/71 64/85/72 76/86/73
f 70/81/68 64/85/72 66/87/74
f 57/78/65 59/88/75 96/79/66
f 66/87/74 60/89/76 59/88/75
f 69/84/71 68/90/77 64/85/72
f 68/90/77 69/84/71 67/91/78
f 66/87/74 68/90/77 60/89/76
f 68/90/77 67/91/78 60/89/76
f 66/87/74 71/92/79 70/81/68
f 71/92/79 66/87/74 57/78/65
f 63/93/80 64/85/72 70/81/68
f 70/81/68 62/83/70 63/93/80
f 65/94/81 57/78/65 58/80/67
f 57/78/65 65/94/81 71/92/79
f 73/95/82 72/74/61 75/96/83
f 78/97/84 76/86/73 73/95/82
f 75/96/83 79/54/49 78/97/84
f 78/97/84 79/54/49 86/98/85
f 78/97/84 86/98/85 77/21/20
f 23/28/26 81/30/28 95/77/64
f 83/19/18 77/21/20 82/99/86
f 49/75/62 79/54/49 80/100/87
f 86/98/85 82/99/86 77/21/20
f 83/19/18 82/99/86 84/101/88
f 85/102/89 86/98/85 49/75/62
f 86/98/85 85/102/89 88/103/90
f 82/99/86 86/98/85 87/104/91
f 87/104/91 88/103/90 89/105/92
f 89/105/92 91/106/93 90/107/94
f 89/105/92 90/107/94 29/40/38
f 105/108/95 91/106/93 55/109/96
f 90/107/94 91/106/93 92/110/97
f 91/106/93 105/108/95 93/111/98
f 93/111/98 94/47/45 91/106/93
f 91/106/93 94/47/45 92/110/97
f 92/110/97 94/47/45 33/44/42
f 94/47/45 95/77/64 81/30/28
f 97/112/48 59/113/75 67/114/78
f 97/53/48 98/115/99 39/51/16
f 67/116/78 98/115/99 97/53/48
f 69/117/71 98/115/99 67/116/78
f 48/35/33 80/100/87 79/54/49
f 73/118/82 43/62/53 99/119/100
f 42/59/4 43/62/53 100/120/101
f 61/121/69 100/120/101 62/122/70
f 42/123/4 100/124/101 45/68/52
f 65/125/81 100/124/101 61/126/69
f 103/127/102 65/125/81 102/69/58
f 76/86/73 44/63/54 69/117/71
f 74/64/55 44/63/54 76/86/73
f 45/68/52 103/127/102 102/69/58
f 103/127/102 45/68/52 100/124/101
f 46/71/59 101/73/60 96/128/66
f 99/119/100 72/74/61 73/118/82
f 49/75/62 80/100/87 48/35/33
f 49/75/62 50/129/103 85/102/89
f 93/111/98 56/76/63 95/77/64
f 4/13/13 2/1/1 3/3/3
f 5/6/6 12/5/5 13/18/17
f 16/130/56 6/10/10 10/7/7
f 8/12/12 7/11/11 11/9/9
f 16/130/56 3/3/3 39/17/16
f 10/7/7 3/3/3 16/130/56
f 7/11/11 4/13/13 10/7/7
f 7/11/11 10/7/7 11/9/9
f 1/16/15 4/13/13 14/14/14
f 1/16/15 14/14/14 15/131/57
f 6/22/10 20/20/19 19/24/22
f 19/24/22 20/20/19 21/33/31
f 19/24/22 21/33/31 48/35/33
f 40/27/25 19/24/22 48/35/33
f 50/129/103 25/34/32 51/36/34
f 24/32/30 26/31/29 27/38/36
f 25/34/32 21/33/31 51/36/34
f 27/38/36 21/33/31 24/32/30
f 84/101/88 28/132/104 26/31/29
f 26/31/29 28/132/104 27/38/36
f 21/33/31 54/39/37 53/37/35
f 28/132/104 29/40/38 27/38/36
f 27/38/36 30/41/39 54/39/37
f 29/40/38 31/43/41 30/41/39
f 90/107/94 31/43/41 29/40/38
f 30/41/39 33/44/42 32/42/40
f 33/44/42 34/45/43 32/42/40
f 94/47/45 35/46/44 33/44/42
f 35/46/44 34/45/43 33/44/42
f 56/76/63 34/45/43 23/28/26
f 35/46/44 22/29/27 34/45/43
f 2/133/1 46/134/59 37/48/46
f 36/49/47 37/48/46 46/134/59
f 38/50/2 36/49/47 97/112/48
f 2/133/1 37/48/46 38/50/2
f 14/135/14 12/5/5 45/68/52
f 101/73/60 15/67/57 102/69/58
f 101/73/60 1/70/15 15/67/57
f 18/25/23 16/65/56 44/63/54
f 16/65/56 39/51/16 44/63/54
f 41/55/50 5/61/6 9/56/8
f 45/68/52 15/67/57 14/135/14
f 104/57/51 17/23/21 47/26/24
f 104/57/51 9/56/8 17/23/21
f 52/136/105 51/36/34 53/37/35
f 52/136/105 54/39/37 55/109/96
f 31/43/41 92/110/97 33/44/42
f 32/42/40 55/109/96 54/39/37
f 32/42/40 34/45/43 105/108/95
f 34/45/43 56/76/63 93/111/98
f 67/91/78 59/88/75 60/89/76
f 70/81/68 71/92/79 61/82/69
f 73/95/82 64/85/72 63/93/80
f 64/85/72 73/95/82 76/86/73
f 66/87/74 64/85/72 68/90/77
f 61/82/69 71/92/79 65/94/81
f 43/137/53 73/95/82 63/93/80
f 57/78/65 66/87/74 59/88/75
f 62/83/70 43/137/53 63/93/80
f 78/97/84 73/95/82 75/96/83
f 18/25/23 74/64/55 77/21/20
f 77/21/20 76/86/73 78/97/84
f 76/86/73 77/21/20 74/64/55
f 49/75/62 86/98/85 79/54/49
f 26/31/29 83/19/18 84/101/88
f 84/101/88 82/99/86 87/104/91
f 84/101/88 87/104/91 28/132/104
f 87/104/91 86/98/85 88/103/90
f 29/40/38 28/132/104 87/104/91
f 89/105/92 29/40/38 87/104/91
f 91/106/93 89/105/92 88/103/90
f 55/109/96 91/106/93 88/103/90
f 99/119/100 41/55/50 104/57/51
f 93/111/98 95/77/64 94/47/45
f 94/47/45 81/30/28 22/29/27
f 36/49/47 46/134/59 96/138/66
f 36/49/47 96/138/66 59/113/75
f 97/112/48 36/49/47 59/113/75
f 52/136/105 85/102/89 50/129/103
f 100/120/101 43/62/53 62/122/70
f 58/139/67 101/73/60 102/69/58
f 102/69/58 65/125/81 58/139/67
f 39/51/16 98/115/99 44/63/54
f 69/117/71 44/63/54 98/115/99
f 65/125/81 103/127/102 100/124/101
f 96/128/66 101/73/60 58/139/67
f 99/119/100 104/57/51 72/74/61
f 47/26/24 75/96/83 72/74/61
f 79/54/49 75/96/83 47/26/24
f 88/103/90 52/136/105 55/109/96
f 32/42/40 105/108/95 55/109/96
f 34/45/43 93/111/98 105/108/95
f 83/19/18 24/32/30 20/20/19
f 50/129/103 49/75/62 25/34/32
f 52/136/105 50/129/103 51/36/34
f 52/136/105 53/37/35 54/39/37
f 31/43/41 90/107/94 92/110/97
f 99/119/100 43/62/53 41/55/50
f 52/136/105 88/103/90 85/102/89
