# Blender v2.82 (sub 7) OBJ File: ''
# www.blender.org
v 1.000000 0.171278 -1.000000
v 1.000000 -0.171278 -1.000000
v 1.000000 0.171278 1.000000
v 1.000000 -0.171278 1.000000
v -1.000000 0.171278 -1.000000
v -1.000000 -0.171278 -1.000000
v -1.000000 0.171278 1.000000
v -1.000000 -0.171278 1.000000
vt -1.002108 0.999415
vt 0.000312 -0.003006
vt 0.000312 0.999415
vt 1.002733 -1.005427
vt 1.002733 -0.003006
vt 0.000313 3.004256
vt 1.002733 2.001836
vt 1.002733 3.004256
vt 1.002733 0.999415
vt 2.005154 -0.003006
vt 2.005154 0.999415
vt 0.000312 2.001836
vt -1.002108 -0.003006
vt 0.000312 -1.005427
vn 0.0000 1.0000 0.0000
vn 0.0000 0.0000 1.0000
vn -1.0000 0.0000 0.0000
vn 0.0000 -1.0000 0.0000
vn 1.0000 0.0000 0.0000
vn 0.0000 0.0000 -1.0000
s off
f 5/1/1 3/2/1 1/3/1
f 3/2/2 8/4/2 4/5/2
f 7/6/3 6/7/3 8/8/3
f 2/9/4 8/10/4 6/11/4
f 1/3/5 4/5/5 2/9/5
f 5/12/6 2/9/6 6/7/6
f 5/1/1 7/13/1 3/2/1
f 3/2/2 7/14/2 8/4/2
f 7/6/3 5/12/3 6/7/3
f 2/9/4 4/5/4 8/10/4
f 1/3/5 3/2/5 4/5/5
f 5/12/6 1/3/6 2/9/6
