# Blender v2.78 (sub 0) OBJ File: ''
# www.blender.org
v 0.500000 -1.000000 -0.500000
v 0.500000 -1.000000 0.500000
v -0.500000 -1.000000 0.500000
v -0.500000 -1.000000 -0.500000
v 0.500000 0.577896 -0.500000
v 0.500000 0.577896 0.500000
v -0.500000 1.000000 0.500000
v -0.500000 1.000000 -0.500000
v 0.500000 0.577896 0.000000
v 0.000000 0.788948 -0.500000
v -0.000000 0.788948 0.500000
v -0.500000 1.000000 -0.000000
v -0.000000 0.788948 0.000000
v 0.500000 0.577896 0.250000
v -0.250000 0.894474 -0.500000
v -0.250000 0.894474 0.500000
v -0.500000 1.000000 -0.250000
v 0.500000 0.577896 -0.250000
v 0.250000 0.683422 -0.500000
v 0.250000 0.683422 0.500000
v -0.500000 1.000000 0.250000
v -0.000000 0.788948 0.250000
v 0.000000 0.788948 -0.250000
v 0.250000 0.683422 0.000000
v -0.250000 0.894474 0.000000
v -0.250000 0.894474 -0.250000
v 0.250000 0.683422 -0.250000
v 0.250000 0.683422 0.250000
v -0.250000 0.894474 0.250000
v -0.000000 0.788948 0.000000
v -0.000000 0.788948 0.250000
v 0.250000 0.683422 0.000000
v -0.250000 0.894474 0.000000
v -0.250000 0.894474 -0.250000
v 0.250000 0.683422 -0.250000
v 0.250000 0.683422 0.250000
v -0.250000 0.894474 0.250000
v 0.000000 0.788948 -0.250000
v -0.000000 0.788948 0.000000
v -0.000000 0.788948 0.250000
v 0.250000 0.683422 0.000000
v -0.250000 0.894474 0.000000
v -0.250000 0.894474 -0.250000
v 0.250000 0.683422 -0.250000
v 0.250000 0.683422 0.250000
v -0.250000 0.894474 0.250000
v 0.000000 0.788948 -0.250000
v -0.000000 0.788948 0.000000
v -0.250000 0.894474 0.000000
v 0.250000 0.683422 0.000000
v -0.250000 0.894474 -0.250000
v 0.250000 0.683422 -0.250000
v -0.250000 0.894474 0.000000
v -0.000000 0.788948 0.000000
v -0.000000 0.788948 0.250000
v 0.250000 0.683422 0.000000
v 0.250000 0.683422 0.250000
v -0.250000 0.894474 0.250000
v 0.054674 0.918474 -0.250000
v 0.054673 0.918474 0.000000
v -0.195327 1.024000 0.000000
v 0.304673 0.812948 0.000000
v -0.195326 1.024000 -0.250000
v 0.304674 0.812948 -0.250000
v -0.195327 1.024000 0.000000
v 0.054673 0.918474 0.000000
v 0.054673 0.918474 0.250000
v 0.304673 0.812948 0.000000
v 0.304673 0.812948 0.250000
v -0.195327 1.024000 0.250000
vt 0.5160 0.5204
vt 0.7671 0.2693
vt 0.7671 0.5204
vt 0.2590 0.3321
vt 0.3232 0.2693
vt 0.3232 0.3321
vt 0.0608 0.6562
vt 0.0616 0.5625
vt 0.2588 0.5000
vt 0.0220 0.3125
vt 0.0220 0.3126
vt 0.2588 0.2501
vt 0.0045 0.0002
vt 0.0089 0.0001
vt 0.2588 0.0002
vt 0.2588 0.9999
vt 0.0220 0.9374
vt 0.0550 0.7487
vt 0.3874 0.3321
vt 0.4515 0.2693
vt 0.4515 0.3321
vt 0.3998 0.1129
vt 0.3963 0.0670
vt 0.3999 0.1129
vt 0.2590 0.4576
vt 0.3232 0.3949
vt 0.3232 0.4576
vt 0.3762 0.2192
vt 0.3899 0.1667
vt 0.3763 0.2223
vt 0.3232 0.5204
vt 0.3874 0.4576
vt 0.3874 0.5204
vt 0.2590 0.5204
vt 0.4515 0.4576
vt 0.5157 0.3949
vt 0.5157 0.4576
vt 0.4515 0.5204
vt 0.5157 0.5204
vt 0.5157 0.2693
vt 0.5157 0.3321
vt 0.4515 0.3949
vt 0.3905 0.0599
vt 0.3164 0.0368
vt 0.3917 0.0586
vt 0.3874 0.2693
vt 0.2590 0.5207
vt 0.3259 0.5219
vt 0.2590 0.5219
vt 0.2590 0.3949
vt 0.3904 0.1629
vt 0.4343 0.1191
vt 0.3890 0.1662
vt 0.3259 0.5230
vt 0.2590 0.5230
vt 0.2950 0.1277
vt 0.3761 0.2162
vt 0.2927 0.1287
vt 0.3262 0.5207
vt 0.3931 0.5219
vt 0.3262 0.5219
vt 0.3759 0.2133
vt 0.3889 0.1661
vt 0.4317 0.1190
vt 0.3931 0.0579
vt 0.4331 0.1190
vt 0.3918 0.1600
vt 0.3176 0.0386
vt 0.3153 0.0351
vt 0.2886 0.1301
vt 0.3140 0.0331
vt 0.3987 0.1178
vt 0.3988 0.1179
vt 0.3931 0.0579
vt 0.3931 0.5230
vt 0.3262 0.5230
vt 0.2907 0.1294
vt 0.3964 0.1250
vt 0.4004 0.1333
vt 0.3929 0.1575
vt 0.4175 0.1231
vt 0.4076 0.0999
vt 0.3603 0.2690
vt 0.2590 0.1596
vt 0.4013 0.1139
vt 0.4009 0.1194
vt 0.4356 0.1192
vt 0.3962 0.1250
vt 0.3950 0.0629
vt 0.4303 0.1189
vt 0.3939 0.0567
vt 0.4010 0.1195
vt 0.3988 0.1252
vt 0.4014 0.1139
vt 0.4492 0.1292
vt 0.4890 0.2289
vt 0.4075 0.1849
vt 0.5256 0.0355
vt 0.5256 0.1400
vt 0.4234 0.0355
vt 0.3987 0.1252
vt 0.2766 0.0430
vt 0.3917 0.2274
vt 0.5160 0.2693
vt 0.2590 0.2693
vt 0.2588 0.7500
vt 0.0591 0.6563
vt 0.0616 0.7500
vt 0.0616 0.5000
vt 0.0188 0.3133
vt 0.0089 0.2501
vt 0.0001 0.0004
vt 0.0089 0.0002
vt 0.0583 0.7493
vt 0.0089 0.9999
vt 0.3259 0.5207
vt 0.3931 0.5207
vt 0.3879 0.1659
vt 0.3260 0.0001
vn 0.0000 -1.0000 0.0000
vn 0.3889 0.9213 0.0000
vn 1.0000 0.0000 0.0000
vn -0.0000 0.0000 1.0000
vn -1.0000 0.0000 -0.0000
vn 0.0000 0.0000 -1.0000
vn 0.9213 -0.3889 0.0000
vn -0.9213 0.3889 -0.0000
s off
f 2/1/1 4/2/1 1/3/1
f 21/4/2 16/5/2 29/6/2
f 9/7/3 14/8/3 2/9/3
f 11/10/4 16/11/4 3/12/4
f 12/13/5 17/14/5 4/15/5
f 4/16/6 15/17/6 10/18/6
f 22/19/2 20/20/2 28/21/2
f 26/22/4 49/23/4 51/24/4
f 17/25/2 25/26/2 26/27/2
f 45/28/4 56/29/4 57/30/4
f 15/31/2 23/32/2 10/33/2
f 8/34/2 26/27/2 15/31/2
f 27/35/2 9/36/2 18/37/2
f 19/38/2 18/37/2 5/39/2
f 10/33/2 27/35/2 19/38/2
f 28/21/2 6/40/2 14/41/2
f 24/42/2 14/41/2 9/36/2
f 25/43/4 37/44/4 33/45/4
f 22/19/2 16/5/2 11/46/2
f 24/47/4 35/48/4 32/49/4
f 12/50/2 29/6/2 25/26/2
f 32/51/4 39/52/4 41/53/4
f 32/49/4 44/54/4 41/55/4
f 22/56/4 36/57/4 31/58/4
f 25/59/4 34/60/4 33/61/4
f 28/62/4 32/63/4 36/57/4
f 13/64/4 33/65/4 30/66/4
f 24/67/4 30/66/4 32/51/4
f 29/68/4 31/58/4 37/44/4
f 46/69/4 55/70/4 58/71/4
f 23/72/4 51/24/4 47/73/4
f 30/66/4 42/74/4 39/52/4
f 33/45/4 46/69/4 42/74/4
f 36/57/4 41/53/4 45/28/4
f 33/61/4 43/75/4 42/76/4
f 37/44/4 40/77/4 46/69/4
f 31/58/4 45/28/4 40/77/4
f 52/78/7 62/79/7 50/80/7
f 49/23/4 60/81/4 61/82/4
f 55/70/4 69/83/4 67/84/4
f 47/73/6 63/85/6 59/86/6
f 41/53/4 54/87/4 56/29/4
f 27/88/4 47/73/4 52/78/4
f 40/77/4 57/30/4 55/70/4
f 24/67/4 52/78/4 50/80/4
f 25/89/4 48/90/4 49/23/4
f 39/52/4 53/91/4 54/87/4
f 13/64/4 50/80/4 48/90/4
f 42/74/4 58/71/4 53/91/4
f 59/92/2 62/79/2 64/93/2
f 63/94/2 60/81/2 59/92/2
f 66/95/2 69/96/2 68/97/2
f 66/95/2 70/98/2 67/99/2
f 58/71/8 65/100/8 53/91/8
f 50/80/4 60/81/4 48/90/4
f 56/29/6 66/95/6 68/97/6
f 52/78/6 59/86/6 64/101/6
f 58/71/4 67/84/4 70/102/4
f 51/24/8 61/82/8 63/94/8
f 56/29/7 69/103/7 57/30/7
f 53/91/6 66/95/6 54/87/6
f 2/1/1 3/104/1 4/2/1
f 21/4/2 7/105/2 16/5/2
f 2/9/3 1/106/3 9/7/3
f 18/107/3 9/7/3 1/106/3
f 1/106/3 5/108/3 18/107/3
f 14/8/3 6/109/3 2/9/3
f 3/12/4 2/9/4 20/110/4
f 20/110/4 11/10/4 3/12/4
f 2/9/4 6/109/4 20/110/4
f 16/11/4 7/111/4 3/12/4
f 4/15/5 3/12/5 12/13/5
f 21/112/5 12/13/5 3/12/5
f 3/12/5 7/111/5 21/112/5
f 17/14/5 8/113/5 4/15/5
f 19/114/6 5/108/6 1/106/6
f 1/106/6 4/16/6 19/114/6
f 8/115/6 15/17/6 4/16/6
f 10/18/6 19/114/6 4/16/6
f 22/19/2 11/46/2 20/20/2
f 26/22/4 25/89/4 49/23/4
f 17/25/2 12/50/2 25/26/2
f 45/28/4 41/53/4 56/29/4
f 15/31/2 26/27/2 23/32/2
f 8/34/2 17/25/2 26/27/2
f 27/35/2 24/42/2 9/36/2
f 19/38/2 27/35/2 18/37/2
f 10/33/2 23/32/2 27/35/2
f 28/21/2 20/20/2 6/40/2
f 24/42/2 28/21/2 14/41/2
f 25/43/4 29/68/4 37/44/4
f 22/19/2 29/6/2 16/5/2
f 24/47/4 27/116/4 35/48/4
f 12/50/2 21/4/2 29/6/2
f 32/51/4 30/66/4 39/52/4
f 32/49/4 35/48/4 44/54/4
f 22/56/4 28/62/4 36/57/4
f 25/59/4 26/117/4 34/60/4
f 28/62/4 24/118/4 32/63/4
f 13/64/4 25/89/4 33/65/4
f 24/67/4 13/64/4 30/66/4
f 29/68/4 22/56/4 31/58/4
f 46/69/4 40/77/4 55/70/4
f 23/72/4 26/22/4 51/24/4
f 30/66/4 33/65/4 42/74/4
f 33/45/4 37/44/4 46/69/4
f 36/57/4 32/63/4 41/53/4
f 33/61/4 34/60/4 43/75/4
f 37/44/4 31/58/4 40/77/4
f 31/58/4 36/57/4 45/28/4
f 52/78/7 64/93/7 62/79/7
f 49/23/4 48/90/4 60/81/4
f 55/70/4 57/30/4 69/83/4
f 47/73/6 51/24/6 63/85/6
f 41/53/4 39/52/4 54/87/4
f 27/88/4 23/72/4 47/73/4
f 40/77/4 45/28/4 57/30/4
f 24/67/4 27/88/4 52/78/4
f 25/89/4 13/64/4 48/90/4
f 39/52/4 42/74/4 53/91/4
f 13/64/4 24/67/4 50/80/4
f 42/74/4 46/69/4 58/71/4
f 59/92/2 60/81/2 62/79/2
f 63/94/2 61/82/2 60/81/2
f 66/95/2 67/99/2 69/96/2
f 66/95/2 65/100/2 70/98/2
f 58/71/8 70/119/8 65/100/8
f 50/80/4 62/79/4 60/81/4
f 56/29/6 54/87/6 66/95/6
f 52/78/6 47/73/6 59/86/6
f 58/71/4 55/70/4 67/84/4
f 51/24/8 49/23/8 61/82/8
f 56/29/7 68/97/7 69/103/7
f 53/91/6 65/100/6 66/95/6
