# Blender v2.78 (sub 0) OBJ File: ''
# www.blender.org
v 0.000000 -0.109028 -1.000000
v 0.000000 -0.109028 1.000000
v -1.000000 -0.109028 1.000000
v -1.000000 -0.109028 -1.000000
v -1.000000 -0.000000 1.000000
v -1.000000 0.000000 -1.000000
v 0.000000 -0.000000 1.000000
v 0.000000 0.000000 -1.000000
v 0.000000 0.109028 0.000000
vt 0.7500 0.7500
vt 0.8750 0.5000
vt 0.7500 0.5000
vt 0.5000 0.2500
vt 0.6250 0.0000
vt 0.5000 0.0000
vt 0.5000 1.0000
vt 0.6250 0.8750
vt 0.5000 0.8750
vt 0.0000 0.0000
vt 0.0000 0.0000
vt 0.0000 0.0000
vt 0.2500 0.6250
vt 0.1250 0.5000
vt 0.1250 0.7500
vt 0.2500 0.5000
vt 0.5000 0.3750
vt 0.6250 0.2500
vt 0.2500 0.7500
vt 0.0000 0.0000
vt 0.0000 0.0000
vt 0.8750 0.7500
vt 0.6250 1.0000
vt 0.6250 0.3750
vn 0.0000 -1.0000 -0.0000
vn -1.0000 0.0000 0.0000
vn 0.0000 0.0000 1.0000
vn 1.0000 0.0000 0.0000
vn -0.1084 0.9941 0.0000
vn 0.0000 0.9941 -0.1084
vn 0.0000 0.0000 -1.0000
vn 0.0000 0.9941 0.1084
s 1
f 2/1/1 4/2/1 1/3/1
f 6/4/2 3/5/2 5/6/2
f 5/7/3 2/8/3 7/9/3
f 2/10/4 1/11/4 8/12/4
f 9/13/5 6/14/5 5/15/5
f 9/13/6 8/16/6 6/14/6
f 8/17/7 4/18/7 6/4/7
f 9/13/8 5/15/8 7/19/8
f 2/10/4 8/12/4 7/20/4
f 7/20/4 8/12/4 9/21/4
f 2/1/1 3/22/1 4/2/1
f 6/4/2 4/18/2 3/5/2
f 5/7/3 3/23/3 2/8/3
f 8/17/7 1/24/7 4/18/7
