# Blender v2.82 (sub 7) OBJ File: ''
# www.blender.org
o Cube
v 10.000000 0.143326 -10.000000
v 10.000000 -0.143326 -10.000000
v 10.000000 0.143326 10.000000
v 10.000000 -0.143326 10.000000
v -10.000000 0.143326 -10.000000
v -10.000000 -0.143326 -10.000000
v -10.000000 0.143326 10.000000
v -10.000000 -0.143326 10.000000
vt 5.472251 0.500000
vt 2.157417 3.814834
vt 2.157417 0.500000
vt -1.157417 7.129668
vt -1.157417 3.814834
vt 2.157417 -6.129668
vt -1.157417 -2.814834
vt -1.157417 -6.129668
vt -1.157417 0.500000
vt -4.472251 3.814834
vt -4.472251 0.500000
vt 2.157417 -2.814834
vt 5.472251 3.814834
vt 2.157417 7.129668
vn 0.0000 1.0000 0.0000
vn 0.0000 0.0000 1.0000
vn -1.0000 0.0000 0.0000
vn 0.0000 -1.0000 0.0000
vn 1.0000 0.0000 0.0000
vn 0.0000 0.0000 -1.0000
s off
f 5/1/1 3/2/1 1/3/1
f 3/2/2 8/4/2 4/5/2
f 7/6/3 6/7/3 8/8/3
f 2/9/4 8/10/4 6/11/4
f 1/3/5 4/5/5 2/9/5
f 5/12/6 2/9/6 6/7/6
f 5/1/1 7/13/1 3/2/1
f 3/2/2 7/14/2 8/4/2
f 7/6/3 5/12/3 6/7/3
f 2/9/4 4/5/4 8/10/4
f 1/3/5 3/2/5 4/5/5
f 5/12/6 1/3/6 2/9/6
